<svg xmlns="http://www.w3.org/2000/svg" version="1.1" xmlns:xlink="http://www.w3.org/1999/xlink" xmlns:svgjs="http://svgjs.com/svgjs" width="48" height="48" x="0" y="0" viewBox="0 0 512 512" style="enable-background:new 0 0 512 512" xml:space="preserve" class=""><g><circle cx="256" cy="256" r="256" style="" fill="#65b1fc" data-original="#65b1fc" class=""></circle><path d="M301.891 507.892C421.376 486.265 512 381.719 512 256c0-3.355-.085-6.691-.213-10.015l-91.022-91.022-64.946 99.807-122.293-122.293L107.39 251.478l58.8 58.8-14.653 13.07 76.376 76.376L215 421l86.891 86.892z" style="" fill="#3992ea" data-original="#3992ea"></path><circle cx="169.274" cy="190.726" r="86.726" style="" fill="#ffce00" data-original="#ffce00"></circle><path d="M169.274 104c-.092 0-.182.003-.274.003v173.445c.092 0 .182.003.274.003 47.897 0 86.726-38.829 86.726-86.726S217.171 104 169.274 104z" style="" fill="#ffb000" data-original="#ffb000"></path><path d="M329.842 345.844c64.671 0 117.097-52.426 117.097-117.097 0-64.671-52.426-117.097-117.097-117.097-54.051 0-99.54 36.625-113.026 86.409a74.865 74.865 0 0 0-11.991-.975c-41.079 0-74.381 33.301-74.381 74.381s33.301 74.381 74.381 74.381h125.017z" style="" fill="#ffffff" data-original="#ffffff"></path><path d="M329.843 111.649c-14.953 0-29.244 2.814-42.39 7.923v226.272h42.39c64.671 0 117.097-52.426 117.097-117.097s-52.426-117.098-117.097-117.098zM331 373h30v48h-30z" style="" fill="#e9edf5" data-original="#e9edf5"></path><path d="M215 373h30v48h-30zM273.692 411h30v48h-30z" style="" fill="#ffffff" data-original="#ffffff"></path><path d="M287.452 411h16.24v48h-16.24z" style="" fill="#e9edf5" data-original="#e9edf5"></path></g></svg>